<!--?xml version="1.0" encoding="UTF-8"?--><svg id="Layer_1" xmlns="http://www.w3.org/2000/svg" viewBox="0 0 1600 1600"><defs><style>.cls-1,.cls-2{fill:#020202;}.cls-3{stroke-miterlimit:10;}.cls-3,.cls-4{fill:#fff;}.cls-3,.cls-4,.cls-2{stroke:#020202;stroke-width:1.70px;}.cls-4,.cls-2{stroke-linecap:round;stroke-linejoin:round;}</style></defs><g id="cloud_amp"><path class="cls-4" d="m1285.09,1105.48c3.95-7.4.63-16.84-5-23.05-10.66-11.75-29.51-15.06-43.53-7.65,3.27-10.95-2.17-23.16-10.99-30.43-8.82-7.27-20.37-10.37-31.72-11.72-9.75-1.16-20.39-.96-28.36,4.78-2.73,1.97-9.27,7.1-9.27,7.1,0,0-3.79-6.07-5.12-8.28-4.66-7.7-9.14-15.55-14.78-22.56-22.28-27.71-63.88-38.31-96.34-29.47-34.31,9.34-66.05,34.03-72.79,71.97-27.29-12.51-49.47-6.71-63.41-1.59-20.19,7.41-36.75,28.4-33.06,48.15,3.28,17.59,167.27,9.91,259.58,8.14,42.51-.82,102.81.25,145.32-.57,3.92-.08,7.63-1.34,9.48-4.8Z"></path><path class="cls-4" d="m345.63,587.88c18.49-8.77,31.5-8.74,49.25-3.36,3.95-21.09,18.05-44.02,36.98-54.13,18.92-10.11,41.74-12.07,62.55-6.83,15.59,3.92,30.7,12.25,39.42,25.75,5.59,8.66,8.23,18.84,10.72,28.84,7.26-6.5,16.85-9.79,26.4-11.72,18.66-3.78,38.85-1.01,55.3,8.57,16.45,9.58,24.7,24.15,27.54,44.22.35,2.48.59,7.7-.8,9.79-4.46,6.68-18.41,5.95-26.43,5.65-92.33-3.51-184.75,2.81-277.15,2.82-6.63,0-13.32-.05-19.89-1.07-4.18-.65-12.93-1.57-15.52-5.57-2.47-3.81,1.34-10.95,2.92-14.59,2.36-5.44,5.46-10.56,9.18-15.17,4.22-5.23,13.46-10.3,19.54-13.18Z"></path><path class="cls-4" d="m925.82,332.71c1.03-12.35,9.92-23.13,20.92-28.84,11-5.71,23.82-6.98,36.2-6.29.28-13.01,3.63-31.84,10.33-42.97,10.94-18.15,27.49-26.36,47.47-32.11,18.27-5.26,37.59-1.68,54.86,6.21,13.43,6.14,25.87,14.31,34,26.67,4.18,6.35,7.47,13.4,8.59,20.91,1.33,8.96-.47,18.06-2.27,26.94,12.99-2.18,27.35-1.48,37.9,6.41,10.55,7.88,14.97,24.65,6.39,34.65,12.84-3.97,24.75-2.46,35.88,5.08,3.07,2.08,11.06,6.78,13.07,13.17,1.06,3.38,1.94,10.21-1.34,11.54-15.35,6.22-38.57,3.32-54.46,4.22-51.39,2.91-115.23-3.21-166.71-1.82-25.26.68-119.02,1.28-120.8-7.51-1.76-8.69,3.61-22.61,9.29-28.92,3.79-4.21,8.86-7.07,14.37-8.34,1.45-.33,11.96-1.96,16.31,1.02Z"></path></g><path class="cls-2" d="m504.2,1332.98c44.95,35.34,105.06,33.33,158.73,39.55,6.93.79,13.8,1.72,20.57,2.85,6.22.32,12.44.53,18.67.69,43.58,1.14,87.29.45,128.47,3.91,6.92-.08,13.79-.19,20.59-.33,12.46-.27,24.68-.66,36.62-1.15,5.97-.25,11.87-.53,17.69-.83,69.53-11.5,153.53.5,208.73-47.5-62.4-43.2-148.8-36-223.21-45.59-8.87,0-17.81,0-26.77-.02-47.18-.06-94.9-.04-142.48,2.25-5.95.29-11.89.6-17.84.91-6.46.05-12.94.11-19.43.21-6.49.1-12.98.24-19.47.45-51.79-.21-103.89,9.81-151.21,31.22-6.33,4.31-9.6,8.76-9.65,13.39Z"></path><path class="cls-3" d="m829.23,1377.84c-.03,1.42-.04,2.14-.04,2.14-9.86-.27-18.86-.27-28.86-.27,4-85-4-169,0-254,1.33-31,1.56-61.89,1.33-92.73-.02-3.86-.06-7.71-.1-11.5-.02-5.31-.07-10.62-.14-15.94-.5-37.12-2.13-74.54-2.57-111.83-.27-24.62-.04-49.19,1.4-73.56.03-2.15.06-4.28.12-6.46v-281.93h28.77v271.15c-.15,3.13-.2,6.16-.28,9.21-3.23,27.14-3.95,54.34-3.6,81.59.47,37.21,2.92,74.5,3.61,111.83.14,7.43.21,14.86.18,22.3.02,3.8.04,7.61.05,11.42.22,53.33.1,106.78-1.77,160.45-2,35,1,69,3,104,1,25-1,49-1.1,74.13Z"></path><path class="cls-1" d="m828.87,1005.54h-27.45c-.5-37.12-2.13-74.54-2.57-111.83h26.41c.47,37.21,2.92,74.5,3.61,111.83Z"></path><path class="cls-3" d="m958.87,438.37c-73.54-2.66-148.54-.66-222.11-.81h-6.37c-18.05.15-38.05-4.85-53.05,3.15-14,8-25,26-33.64,41.83-1.12,1.91-2.26,3.86-3.43,5.85-42.51,73.63-116.19,201.25-116.19,201.25,0,0,2.64,4.57,7.2,12.47,1.14,1.98,2.41,4.16,3.8,6.54,30.27,45.05,56.27,92.05,81,140.3,1.17,2.05,2.35,4.09,3.52,6.12,4.68,8.1,9.22,15.97,13.53,23.43,1.23,2.13,2.44,4.23,3.64,6.3,10.58,18.9,19.58,40.9,36.58,52.9,11,8,31,4,48.22,4.01,2.2,0,4.45,0,6.74,0h155.11c2.32,0,4.6-.01,6.84-.03,23.08-.98,48.08,3.02,68.08-3.98,9-3,15-19,21.98-30.11,1.02-1.7,2.05-3.47,3.11-5.27,13.02-22.56,30.19-52.29,47.55-82.36,1.24-2.15,2.48-4.3,3.72-6.44,11.32-20.91,22.98-41.37,34.94-61.84,1.71-2.93,3.42-5.85,5.14-8.78,11.56-16.2,17.56-38.2,19.56-54.2,1-14-9-32-16.22-47.68-1.05-1.88-2.15-3.79-3.27-5.74-1.54-2.66-3.11-5.39-4.68-8.14-9.83-12.44-10.83-28.44-19.83-41.44-24-36-38-70-62-105-10-14-20-25-27.57-38.78-1.24-2.31-1.89-3.56-1.89-3.56Z"></path><path class="cls-1" d="m937.79,450.7c-35.46-.99-68.46,9.01-103.9,7.24-2.4,0-4.83,0-7.26,0h-145.26l-2.63,4.56c-.85,1.47-1.9,3.29-3.13,5.42-35.28,61.79-75.28,121.79-107.12,185.54-2.08,3.6-4.06,7.02-5.89,10.21-2.3,3.98-4.38,7.59-6.22,10.78-1.84,3.18-3.42,5.93-4.73,8.18-2.32,2.09-3.32,6.09-3.32,6.09,42,59,70,118,102.03,178.91,1.18,2.06,2.35,4.09,3.51,6.09l27.5,47.63h267.55s.93-1.61,2.63-4.55c39.89-71.67,81.79-140.53,120.31-213.62,1.8-3.53,3.6-7.07,5.37-10.66,3.11-6.81.11-12.81-3.89-18.81-23-41-43-80-66-121-7.5-14.17-15.87-27.64-24.5-40.93-1.73-2.66-3.46-5.31-5.2-7.96-10.3-19.12-27.3-33.12-38.7-50.87-.75-1.45-1.14-2.26-1.14-2.26Z"></path><path class="cls-3" d="m746.2,712.59h19.39v14.5h-19.39v32.45h-17.86v-32.45h-63.66v-10.46l62.6-96.87h18.91v92.84Zm-61.35,0h43.49v-68.55l-2.11,3.84-41.38,64.71Z"></path><path class="cls-3" d="m869.29,699.91c0,20.8-3.55,36.26-10.66,46.37-7.1,10.11-18.21,15.17-33.32,15.17s-25.96-4.94-33.12-14.83c-7.17-9.89-10.88-24.66-11.14-44.31v-23.71c0-20.55,3.55-35.81,10.66-45.8,7.1-9.98,18.24-14.98,33.41-14.98s26.12,4.82,33.22,14.45c7.1,9.63,10.75,24.5,10.94,44.6v23.04Zm-17.76-24.29c0-15.04-2.11-26-6.34-32.88-4.22-6.88-10.91-10.32-20.07-10.32s-15.71,3.43-19.87,10.27c-4.16,6.85-6.31,17.38-6.43,31.59v28.42c0,15.11,2.19,26.26,6.58,33.46,4.38,7.2,11.02,10.8,19.92,10.8s15.28-3.39,19.54-10.18c4.26-6.78,6.48-17.47,6.67-32.07v-29.09Z"></path><path class="cls-3" d="m967.03,712.59h19.39v14.5h-19.39v32.45h-17.86v-32.45h-63.66v-10.46l62.6-96.87h18.91v92.84Zm-61.35,0h43.49v-68.55l-2.11,3.84-41.38,64.71Z"></path></svg>